<svg xmlns="http://www.w3.org/2000/svg" width="420" height="520" viewBox="0 0 420 520">
<rect width="420" height="520" rx="26" fill="#fff8ec" stroke="#efe9dd" stroke-width="2"/>
<svg x="85" y="34" width="250" height="300" viewBox="0 0 100 120"><path d="M78 96 Q98 88 100 70 Q88 84 74 88Z" fill="#c3cee2"></path><path d="M74 102 Q96 100 100 86 Q86 96 72 96Z" fill="#e9eef7"></path><ellipse cx="50" cy="82" rx="36" ry="37" fill="#e9eef7"></ellipse><ellipse cx="50" cy="88" rx="24" ry="27" fill="#ffffff"></ellipse><path d="M14 74 Q2 58 12 38 Q20 58 24 74Z" fill="#c3cee2"></path><path d="M86 74 Q98 58 88 38 Q80 58 76 74Z" fill="#c3cee2"></path><ellipse cx="50" cy="37" rx="30" ry="28" fill="#e9eef7"></ellipse><path d="M24 18 L18 4 L31 13Z" fill="#c3cee2"></path><path d="M76 18 L82 4 L69 13Z" fill="#c3cee2"></path><circle cx="36" cy="37" r="13" fill="#ffffff"></circle><circle cx="64" cy="37" r="13" fill="#ffffff"></circle><circle cx="36" cy="36" r="8" fill="#fff"></circle><circle cx="64" cy="36" r="8" fill="#fff"></circle><circle cx="37" cy="37" r="4" fill="#241f36"></circle><circle cx="65" cy="37" r="4" fill="#241f36"></circle><path d="M44 45 L50 53 L56 45Z" fill="#c3cee2"></path><path d="M42 51 Q50 56 58 51" stroke="#241f36" stroke-width="2.4" fill="none" stroke-linecap="round"></path><path d="M40 100 Q50 105 60 100" stroke="#c3cee2" stroke-width="3" fill="none" stroke-linecap="round"></path><path d="M40 93 Q50 98 60 93" stroke="#c3cee2" stroke-width="3" fill="none" stroke-linecap="round"></path><path d="M40 86 Q50 91 60 86" stroke="#c3cee2" stroke-width="3" fill="none" stroke-linecap="round"></path><ellipse cx="38" cy="116" rx="10" ry="5" fill="#c3cee2"></ellipse><ellipse cx="62" cy="116" rx="10" ry="5" fill="#c3cee2"></ellipse><g><path d="M20 40 A30 30 0 0 1 80 40 L80 44 Q50 36 20 44Z" fill="#f4f7fc"></path><path d="M24 38 H76 L68 47 H56 L52 58 H48 L44 47 H32Z" fill="#3b82f6"></path></g></svg>
<text x="210" y="386" text-anchor="middle" font-family="DejaVu Sans" font-size="24" font-weight="bold" fill="#241f36">«Белый воин»</text>
<text x="210" y="418" text-anchor="middle" font-family="DejaVu Sans" font-size="15" fill="#6b6480">Снежно-белая броня и синий визор</text>
</svg>